<?xml version="1.0" encoding="utf-8"?>
<!-- Generator: Adobe Illustrator 16.0.0, SVG Export Plug-In . SVG Version: 6.00 Build 0)  -->
<!DOCTYPE svg PUBLIC "-//W3C//DTD SVG 1.1//EN" "http://www.w3.org/Graphics/SVG/1.1/DTD/svg11.dtd">
<svg version="1.1" id="Layer_1" xmlns="http://www.w3.org/2000/svg" xmlns:xlink="http://www.w3.org/1999/xlink" x="0px" y="0px"
	 width="841.89px" height="595.28px" viewBox="0 0 841.89 595.28" enable-background="new 0 0 841.89 595.28" xml:space="preserve">
<g>
	<g>
		<path fill="#FFE5C3" d="M121.527,462.771h611.257c0,0,14.856-42.545-27.592-87.219c-42.448-44.676-47.6-151.335-182.45-190.861
			c-134.852-39.526-248.051,0.57-281.233,66.511C208.327,317.145,84.385,327.24,121.527,462.771z"/>
		<path fill="#F6D2A2" d="M732.784,462.771c0,0,9.548-27.363-8.56-61.242c-21.343,12.08-44.67,35.619-83.253,41.943
			c-58.914,9.66-90.121-14.133-146.43-62.326c-56.308-48.195-172.446,20.301-199.108-34.27
			c-15.931-32.604-54.677-51.185-83.292-60.865c-47.544,40.417-120.207,68.775-90.614,176.759H732.784z"/>
		
			<line fill="none" stroke="#F6D2A2" stroke-width="1.0612" stroke-miterlimit="10" x1="89.691" y1="462.771" x2="762.498" y2="462.771"/>
	</g>
	<g>
		<rect x="263.327" y="329.816" fill="#974E28" width="122.894" height="143.264"/>
		<rect x="343.52" y="329.816" fill="#C06E43" width="42.701" height="143.264"/>
		<g>
			<path fill="none" stroke="#7E401F" stroke-width="0.7889" stroke-miterlimit="10" d="M369.511,343.68h-9.281
				c-1.528,0-2.769-1.238-2.769-2.768v-0.121h14.818v0.121C372.279,342.441,371.039,343.68,369.511,343.68z"/>
			
				<line fill="none" stroke="#7E401F" stroke-width="0.7889" stroke-miterlimit="10" x1="386.221" y1="365.633" x2="263.327" y2="365.633"/>
		</g>
		<g>
			<path fill="none" stroke="#7E401F" stroke-width="0.7889" stroke-miterlimit="10" d="M369.511,379.496h-9.281
				c-1.528,0-2.769-1.24-2.769-2.768v-0.121h14.818v0.121C372.279,378.256,371.039,379.496,369.511,379.496z"/>
			
				<line fill="none" stroke="#7E401F" stroke-width="0.7889" stroke-miterlimit="10" x1="386.221" y1="401.447" x2="263.327" y2="401.447"/>
		</g>
		<g>
			<path fill="none" stroke="#7E401F" stroke-width="0.7889" stroke-miterlimit="10" d="M369.511,415.313h-9.281
				c-1.528,0-2.769-1.24-2.769-2.77v-0.119h14.818v0.119C372.279,414.072,371.039,415.313,369.511,415.313z"/>
			
				<line fill="none" stroke="#7E401F" stroke-width="0.7889" stroke-miterlimit="10" x1="386.221" y1="437.264" x2="263.327" y2="437.264"/>
		</g>
		<g>
			<path fill="none" stroke="#7E401F" stroke-width="0.7889" stroke-miterlimit="10" d="M369.511,451.127h-9.281
				c-1.528,0-2.769-1.238-2.769-2.768v-0.119h14.818v0.119C372.279,449.889,371.039,451.127,369.511,451.127z"/>
		</g>
	</g>
	<circle fill="#FFACAC" cx="526.55" cy="251.203" r="121.57"/>
	<g>
		<rect x="603.455" y="252.008" opacity="0.2" width="90.999" height="40.061"/>
		<rect x="601.105" y="249.278" fill="#0093C1" width="90.999" height="40.061"/>
		<polygon fill="#007FA5" points="612.16,289.338 601.105,289.338 601.105,249.278 621.033,249.278 		"/>
		
			<text transform="matrix(1 0 0 1 621.0332 277.0088)" fill="#FFFFFF" font-family="'OpenSans-Bold'" font-size="30.4161" letter-spacing="1">css</text>
	</g>
	<g>
		<polygon fill="#C06E43" points="542.426,471.891 537.511,471.891 536.401,344.938 543.535,344.938 		"/>
		<polygon fill="#974E28" points="550.851,429.34 529.086,429.34 532.936,419.883 547.001,419.883 		"/>
		<path fill="#7E401F" d="M550.851,429.34h-21.765l4.192,7.76c0.543,1.004,1.594,1.631,2.735,1.631h7.909
			c1.142,0,2.192-0.627,2.735-1.631L550.851,429.34z"/>
		<g>
			<path fill="#C06E43" d="M575.989,471.891h-5.182l-26.331-52.008h3.746c2.562,0,4.887,1.5,5.943,3.834L575.989,471.891z"/>
			<path fill="#C06E43" d="M503.947,471.891h5.182l26.331-52.008h-3.746c-2.562,0-4.887,1.5-5.943,3.834L503.947,471.891z"/>
		</g>
		<path fill="#FFFFFF" d="M486.361,348.211c0,0,37.718,0,66.371,0c28.652,0,43.863-19.455,49.876-44.217
			c6.014-24.762,8.844-39.619,12.027-54.83s-2.476-37.37-21.578-37.37c-19.102,0-21.932,0-36.435,0s-22.32-4.529-29.024,19.073
			c-6.703,23.603-12.667,54.378-16.76,69.941c-4.093,15.566-35.133,13.355-46.188,23.436
			C456.052,332.088,455.719,348.211,486.361,348.211z"/>
		<path fill="#E3E3E3" d="M585.275,272.246c-3.448-16.184-8.755-30.411-9.551-36.032c-0.707-4.994,3.605-17.275-0.075-24.419
			c-6.069,0-10.561,0-19.026,0c-14.503,0-22.32-4.529-29.024,19.073c-6.703,23.603-12.667,54.378-16.76,69.941
			c-4.093,15.566-35.133,13.355-46.188,23.436c-8.6,7.844-8.933,23.967,21.71,23.967c0,0,14.995,0,33.256,0
			c-4.2-6.051-8.232-14.945,4.374-14.945c19.102,0,28.918,0,28.918,0c15.652,0,22.815-4.246,28.652-14.063
			C587.398,309.389,588.725,288.429,585.275,272.246z"/>
	</g>
	<g>
		<path fill="#FF6C6C" d="M421.537,424.264c0,0-5.305,31.441-7.225,37.969c-0.84,2.857-10.416,8.736-13.44,9.914
			c-3.024,1.176-8.736,1.344-8.736,3.359s14.448,2.352,21.505,1.848s13.944,0.336,14.112-2.016s-2.521-4.033-1.849-9.072
			c0.673-5.041,13.609-42.002,13.609-42.002H421.537z"/>
		<path fill="#FF6C6C" d="M493.207,424.264c0,0,5.819,30.244,5.291,37.969c-0.202,2.971-10.416,8.736-13.44,9.914
			c-3.023,1.176-8.736,1.344-8.736,3.359s14.448,2.352,21.505,1.848s13.944,0.336,14.112-2.016c0.169-2.352-1.442-4.004-1.848-9.072
			c-0.452-5.656,1.093-42.002,1.093-42.002H493.207z"/>
		<path fill="#BF3838" d="M495.105,434.736l15.405,7.145c0.319-9.297,0.673-17.617,0.673-17.617h-17.977
			C493.207,424.264,494.073,428.768,495.105,434.736z"/>
		<path fill="#BF3838" d="M419.826,434.162l14.436,5.363c2.813-8.295,5.252-15.262,5.252-15.262h-17.977
			C421.537,424.264,420.823,428.492,419.826,434.162z"/>
		<path fill="#00856C" d="M458.638,428.508h-41.741c0,0,16.272-93.74,20.871-108.949c4.599-15.211,27.228-26.861,88.783-26.873
			l-7.809,28.994l-43.479,16.627c0,0-6.155,10.27-7.677,22.291c-1.521,12.021-1.167,17.326-5.058,23.34
			c-3.892,6.014-0.708,10.258-1.769,18.748C459.699,411.176,458.638,428.508,458.638,428.508z"/>
		<path fill="#00614E" d="M440.063,314.551c10.666-2.135,14.508,9.057,15.214,26.939c0.625,15.838,7.861,27.088,10.938,31.188
			c0.428-3.219,0.737-7.059,1.372-12.08c1.521-12.021,7.677-22.291,7.677-22.291l43.479-16.627l7.809-28.994
			C471.955,292.697,447.995,301.865,440.063,314.551z"/>
		
			<line fill="none" stroke="#00614E" stroke-width="1.0612" stroke-linecap="round" stroke-linejoin="round" stroke-miterlimit="10" x1="421.85" y1="419.488" x2="453.686" y2="419.488"/>
		
			<path fill="none" stroke="#00614E" stroke-width="1.0612" stroke-linecap="round" stroke-linejoin="round" stroke-miterlimit="10" d="
			M473.674,324.244c0,0-10.968,5.307-13.621,13.797c-2.652,8.488-3.448,31.039-6.367,38.469c-2.918,7.428-0.707,11.143-1.149,18.041
			c-0.442,6.896-3.626,24.938-3.626,24.938"/>
		<path fill="#D24F4F" d="M477.209,219.981l-13.973,52.354l-58.013,13.973h65.586c6.27,0,11.854-3.963,13.926-9.881l15.113-43.18
			C499.849,233.246,487.998,217.151,477.209,219.981z"/>
		<path fill="#BF3838" d="M499.849,233.246c0,0-11.851-16.095-22.64-13.265l-4.334,16.24c1.083,1.132,2.58,2.085,4.688,2.56
			c6.629,1.491,8.862,15.804,12.986,21.034L499.849,233.246z"/>
		<path fill="#528297" d="M522.742,184.691c0,0,17.697,3.719,27.248,8.229c9.551,4.51,12.47,15.387,14.99,32.367l-18.615,1.061
			c0,0,8.666,34.136,12.911,46.34c4.244,12.203,13.265,18.395,7.074,19.632c-6.19,1.238-56.951,0-65.265,0
			c-8.313,0,2.3-12.026,3.361-19.102c1.061-7.075-0.531-19.456-4.599-24.585c-4.068-5.129-9.374-3.36-8.49-19.278l-17.685-7.251
			c0,0,6.188-17.864,17.861-26.354C503.209,187.26,511.323,185.306,522.742,184.691z"/>
		<path fill="#253D49" d="M559.276,272.688c-4.245-12.204-12.911-46.34-12.911-46.34l4.906-0.28l-21.179,1.144l1.88-10.673
			c0,0-4.71,11.401-5.771,23.075c-0.95,10.441-14.545,17.877-21.531,25.817c0.18,2.858,0.107,5.581-0.224,7.787
			c-1.062,7.075-11.674,19.102-3.36,19.102c8.313,0,59.073,1.238,65.264,0C572.541,291.083,563.521,284.891,559.276,272.688z"/>
		<path fill="#FF6C6C" d="M560.861,225.522l-14.569,47.254c-2.48,8.043-9.914,13.531-18.331,13.531h-74.275
			c0,0,1.946-6.367,7.252-6.898s6.544,0.531,10.258,0.707c3.715,0.178,49.87-10.775,49.87-10.775l12.786-42.128L560.861,225.522z"/>
		<path fill="#253D49" d="M484.638,226.599l6.721,2.756c0.707-5.651,3.192-11.895,3.184-16.449
			c-0.006-3.188-2.299,0.924-5.306,6.741C487.756,222.51,486.021,224.904,484.638,226.599z"/>
		
			<path fill="none" stroke="#253D49" stroke-width="1.0612" stroke-linecap="round" stroke-linejoin="round" stroke-miterlimit="10" d="
			M533.852,227.212h-3.759c0,0,0.62-9.631,3.759-15.417"/>
		<path fill="#00856C" d="M563.521,287.368c0,0,19.898,45.898-10.611,45.898s-44.04,0-44.04,0s1.513,7.135-0.167,13.086
			c-0.733,2.6-0.826,5.336-0.06,7.926c2.11,7.125,6.054,20.82,7.39,28.068c1.856,10.082,3.698,12.205,5.033,21.225
			c1.334,9.02,7.17,15.652,5.313,24.938h-45.897c0,0-9.551-62.346-12.47-88.346c-2.918-25.998,9.286-44.835,33.959-44.835
			c0,0,29.184-3.979,33.163-5.836L563.521,287.368z"/>
		
			<line fill="none" stroke="#00614E" stroke-width="1.0612" stroke-linecap="round" stroke-linejoin="round" stroke-miterlimit="10" x1="483.307" y1="419.488" x2="522.134" y2="419.488"/>
		
			<path fill="none" stroke="#00614E" stroke-width="1.0612" stroke-linecap="round" stroke-linejoin="round" stroke-miterlimit="10" d="
			M509.93,419.488c0,0,0-13-1.592-21.754c-1.592-8.756-3.184-18.807-4.245-25.057c-1.061-6.25-1.856-16.861-2.652-24.557
			c-0.796-7.693,0.703-12.998,1.28-22.02c10.393-2.123,39.311,0.531,48.597-3.184c9.285-3.715,16.464-6.102,18.579-14.061"/>
		<path fill="#BF3838" d="M532.262,232.451c4.736-0.465,16.311-0.968,25.303,3.763l3.297-10.692l-27.01,1.69L532.262,232.451z"/>
		<path fill="#3A796B" d="M410.607,466.219c-3.287,2.555-7.821,5.182-9.735,5.928c-3.024,1.176-8.736,1.344-8.736,3.359
			s14.448,2.352,21.505,1.848s13.944,0.336,14.112-2.016c0.138-1.93-1.642-3.408-1.917-6.658c-1.824,0.088-4.046,0.158-6.735,0.189
			C414.07,468.928,411.703,467.629,410.607,466.219z"/>
		<path fill="#3A796B" d="M494.794,466.219c-3.287,2.555-7.822,5.182-9.736,5.928c-3.023,1.176-8.736,1.344-8.736,3.359
			s14.448,2.352,21.505,1.848s13.944,0.336,14.112-2.016c0.138-1.93-1.642-3.408-1.917-6.658c-1.824,0.088-4.046,0.158-6.735,0.189
			C498.256,468.928,495.889,467.629,494.794,466.219z"/>
		<path fill="#FF6C6C" d="M497.259,174.019c1.196,2.718,1.329,4.642,3.12,6.432c1.1,1.099,2.947,1.923,4.212,2.396
			c0.835,0.312,1.764,0.25,2.559-0.154l1.496-0.762l2.193,5.948l-3.319,1.423c-3.039,1.302-5.39,3.818-6.466,6.943
			c-2.383,6.918-2.779,18.497,8.522,18.497c13.684,0,21.688-13.912,25.627-21.929c0.825-1.68-0.184-3.686-2.028-4.007
			c-3.204-0.558-7.626-1.878-9.052-4.972c-2.321-5.041-4.111-10.28-4.111-10.28s0.597-10.479-0.066-13.663
			s-4.842-11.077-13.133-8.888c-8.291,2.188-14.883,8.45-13.663,16.582C493.349,168.91,497.259,174.019,497.259,174.019z"/>
		
			<line fill="none" stroke="#BF3838" stroke-width="0.7959" stroke-linecap="round" stroke-miterlimit="10" x1="510.839" y1="187.878" x2="512.317" y2="191.992"/>
		<path fill="#BF3838" d="M509.663,184.691c3.006-0.004,4.246-6.363,5.201-7.911c0.955-1.547,0.106-2.476-0.602-1.326
			c-0.707,1.149-2.741,4.952-5.617,6.477L509.663,184.691z"/>
		<path fill="#8C2828" d="M508.072,153.921c0,0,0.549,4.565,4.112,9.02c1.062,1.327,0.929,6.898,2.653,7.561
			c1.725,0.664-0.266-2.786,0.796-5.173s3.449-1.327,3.449,1.327c0,2.653-1.326,5.438-1.326,5.438l2.255,1.459
			c0,0,1.061-5.837,2.52-12.602c1.46-6.765-4.774-13.928-15.785-12.602c0,0-14.061-6.632-19.765,7.031s4.908,15.255,4.908,15.255
			l5.505,3.714l-1.75-4.276c-0.69-1.688-0.074-3.621,1.464-4.601C500.52,163.301,506.175,159.073,508.072,153.921z"/>
		<circle fill="#8C2828" cx="517.224" cy="142.709" r="9.014"/>
	</g>
	
		<rect x="484.638" y="286.307" fill="none" stroke="#00337F" stroke-width="0.756" stroke-miterlimit="10" width="106.475" height="10.081"/>
	<g>
		<rect x="354.64" y="283.067" fill="#E3E3E3" width="153.208" height="3.24"/>
		<polygon fill="#FFFFFF" points="449.498,286.307 351.305,286.307 335.892,216.099 434.086,216.099 		"/>
		<polygon fill="#E3E3E3" points="449.498,286.307 445.896,286.307 430.483,216.099 434.086,216.099 		"/>
		<path fill="#FF9D00" d="M399.281,251.203c1.116,5.086-2.102,9.208-7.188,9.208c-5.085,0-10.113-4.122-11.229-9.208
			c-1.117-5.085,2.101-9.208,7.186-9.208C393.137,241.995,398.164,246.118,399.281,251.203z"/>
	</g>
	<g>
		<path fill="#FFFFFF" d="M298.024,255.98c0,0-6.296-4.416-2.78-10.305c3.517-5.889,17.869-3.864,18.605-8.465
			c0.736-4.6-15.365-4.232-27.418-4.048c-12.053,0.184-16.837-0.989-16.837-4.025c0-3.565,4.568-3.295,4.417-7.724
			c-0.185-5.388-27.879-2.512-27.879-2.512s5.688-1.96,16.377-2.737c7.913-0.575,21.346-1.495,22.082,4.761
			s5.889,5.521,16.285,6.256c10.396,0.736,19.689,3.772,18.953,13.433c-0.736,9.661-19.748,3.159-21.99,8.005
			c-2.241,4.846,4.509,7.36,4.509,7.36H298.024z"/>
		<path fill="#FF9D00" d="M283.002,253.94l2.334,28.887c0.158,1.966,1.8,3.48,3.771,3.48h6.326h6.324
			c1.973,0,3.613-1.515,3.772-3.48l2.334-28.887H283.002z"/>
	</g>
	<g>
		<polygon opacity="0.2" points="563.47,132.685 563.47,167.339 542.783,180.762 563.47,180.762 563.47,190.93 646.604,190.93 
			646.604,132.685 		"/>
		<polygon fill="#FF6C6C" points="560.861,129.633 560.861,164.287 540.175,177.709 560.861,177.709 560.861,187.878 
			643.996,187.878 643.996,129.633 		"/>
		
			<text transform="matrix(1 0 0 1 572.9355 170.8335)" fill="#FFFFFF" font-family="'OpenSans-Bold'" font-size="35.7718" letter-spacing="1">&lt;/&gt;</text>
	</g>
	<g>
		<rect x="631.406" y="287.324" opacity="0.2" width="76.228" height="40.061"/>
		<rect x="628.488" y="284.14" fill="#FF6C6C" width="76.228" height="40.061"/>
		<text transform="matrix(1 0 0 1 640.9727 308.9063)" fill="#FFFFFF" font-family="'OpenSans-Bold'" font-size="16.7954">HTML</text>
	</g>
	<path fill="#4C4C4C" d="M676.802,388.738c0.331-2.029,0.511-4.109,0.511-6.232s-0.18-4.203-0.511-6.232h-10.688
		c-0.708-3.107-1.932-6.02-3.579-8.637l7.555-7.557c-2.441-3.393-5.42-6.371-8.813-8.813l-7.556,7.555
		c-2.618-1.648-5.529-2.871-8.638-3.58v-10.688c-2.029-0.332-4.109-0.512-6.232-0.512s-4.203,0.18-6.232,0.512v10.688
		c-3.108,0.709-6.019,1.932-8.638,3.58l-7.555-7.555c-3.395,2.441-6.373,5.42-8.813,8.813l7.555,7.557
		c-1.648,2.617-2.871,5.529-3.579,8.637h-10.689c-0.331,2.029-0.51,4.109-0.51,6.232s0.179,4.203,0.51,6.232h10.689
		c0.708,3.109,1.931,6.02,3.579,8.639l-7.555,7.555c2.44,3.395,5.419,6.373,8.813,8.813l7.555-7.555
		c2.619,1.648,5.529,2.871,8.638,3.58v10.689c2.029,0.33,4.109,0.51,6.232,0.51s4.203-0.18,6.232-0.51V409.77
		c3.108-0.709,6.02-1.932,8.638-3.58l7.556,7.555c3.394-2.439,6.372-5.418,8.813-8.813l-7.555-7.555
		c1.647-2.619,2.871-5.529,3.579-8.639H676.802z M638.85,396.271c-7.603,0-13.766-6.162-13.766-13.766
		c0-7.602,6.163-13.766,13.766-13.766s13.766,6.164,13.766,13.766C652.615,390.109,646.452,396.271,638.85,396.271z"/>
	<path fill="#7E7E7E" d="M715.734,416.66c0.101-1.291,0.104-2.605-0.009-3.938c-0.111-1.332-0.333-2.629-0.647-3.885l-6.707,0.563
		c-0.608-1.914-1.529-3.676-2.701-5.232l4.344-5.137c-1.711-2.002-3.736-3.715-5.995-5.066l-4.343,5.137
		c-1.729-0.896-3.62-1.51-5.608-1.791l-0.563-6.707c-1.291-0.1-2.605-0.104-3.938,0.008s-2.628,0.334-3.884,0.648l0.563,6.707
		c-1.913,0.607-3.675,1.529-5.231,2.701l-5.139-4.344c-2.001,1.711-3.714,3.736-5.066,5.994l5.138,4.344
		c-0.896,1.73-1.51,3.621-1.791,5.607l-6.707,0.563c-0.101,1.291-0.104,2.605,0.008,3.938c0.112,1.332,0.334,2.629,0.648,3.885
		l6.707-0.563c0.607,1.912,1.528,3.676,2.7,5.232l-4.343,5.137c1.71,2.002,3.736,3.715,5.994,5.066l4.343-5.137
		c1.73,0.895,3.621,1.51,5.609,1.791l0.563,6.707c1.29,0.1,2.605,0.104,3.938-0.008s2.628-0.334,3.884-0.648l-0.563-6.707
		c1.913-0.607,3.675-1.529,5.231-2.701l5.138,4.344c2.002-1.711,3.714-3.736,5.067-5.994l-5.139-4.344
		c0.896-1.73,1.511-3.621,1.791-5.607L715.734,416.66z M692.316,423.383c-4.771,0.4-8.963-3.143-9.362-7.912
		c-0.4-4.771,3.143-8.963,7.913-9.363c4.771-0.398,8.962,3.145,9.362,7.914C700.63,418.793,697.087,422.984,692.316,423.383z"/>
	<g>
		<g opacity="0.2">
			<path d="M456.247,102.516H337.929c-5.377,0-9.735,4.359-9.735,9.736v69.272c0,5.377,4.358,9.736,9.735,9.736h48.263
				c1.654,0,3.169,0.934,3.912,2.413l5.968,11.88c0.42,0.836,1.613,0.836,2.033,0l5.968-11.88c0.743-1.479,2.258-2.413,3.912-2.413
				h48.263c5.377,0,9.736-4.359,9.736-9.736v-69.272C465.983,106.875,461.624,102.516,456.247,102.516z"/>
		</g>
		<g>
			<path fill="#253D49" d="M454.12,98.53H335.802c-5.378,0-9.736,4.359-9.736,9.736v69.272c0,5.377,4.358,9.736,9.736,9.736h48.262
				c1.655,0,3.169,0.934,3.913,2.413l5.968,11.88c0.42,0.836,1.612,0.836,2.032,0l5.969-11.88c0.743-1.479,2.257-2.413,3.912-2.413
				h48.263c5.377,0,9.735-4.359,9.735-9.736v-69.272C463.855,102.889,459.497,98.53,454.12,98.53z"/>
			<path fill="#FF9D00" d="M376.748,116.395h-31.893c-1.043,0-1.889-0.846-1.889-1.89l0,0c0-1.044,0.846-1.89,1.889-1.89h31.893
				c1.044,0,1.89,0.846,1.89,1.89l0,0C378.638,115.548,377.792,116.395,376.748,116.395z"/>
			<path fill="#FFFFFF" d="M390.234,124.996h-45.379c-1.043,0-1.889-0.846-1.889-1.89l0,0c0-1.044,0.846-1.89,1.889-1.89h45.379
				c1.043,0,1.89,0.846,1.89,1.89l0,0C392.124,124.149,391.277,124.996,390.234,124.996z"/>
			<path fill="#0093C1" d="M443.439,116.395h-58.378c-1.044,0-1.89-0.846-1.89-1.89l0,0c0-1.044,0.846-1.89,1.89-1.89h58.378
				c1.044,0,1.89,0.846,1.89,1.89l0,0C445.329,115.548,444.483,116.395,443.439,116.395z"/>
			<path fill="#FFFFFF" d="M443.439,124.996h-45.378c-1.044,0-1.89-0.846-1.89-1.89l0,0c0-1.044,0.846-1.89,1.89-1.89h45.378
				c1.044,0,1.89,0.846,1.89,1.89l0,0C445.329,124.149,444.483,124.996,443.439,124.996z"/>
			<path fill="#FF6C6C" d="M413.366,131.586h-69.516c-0.488,0-0.884-0.396-0.884-0.885l0,0c0-0.488,0.396-0.884,0.884-0.884h69.516
				c0.489,0,0.885,0.396,0.885,0.884l0,0C414.251,131.19,413.855,131.586,413.366,131.586z"/>
			<path fill="#FF9D00" d="M399.033,147.636h-54.178c-1.043,0-1.889-0.846-1.889-1.89l0,0c0-1.044,0.846-1.89,1.889-1.89h54.178
				c1.044,0,1.891,0.846,1.891,1.89l0,0C400.924,146.79,400.077,147.636,399.033,147.636z"/>
			<path fill="#FF9D00" d="M376.748,156.237h-31.893c-1.043,0-1.889-0.846-1.889-1.89l0,0c0-1.044,0.846-1.89,1.889-1.89h31.893
				c1.044,0,1.89,0.846,1.89,1.89l0,0C378.638,155.391,377.792,156.237,376.748,156.237z"/>
			<path fill="#FFFFFF" d="M390.234,164.838h-45.379c-1.043,0-1.889-0.846-1.889-1.89l0,0c0-1.044,0.846-1.89,1.889-1.89h45.379
				c1.043,0,1.89,0.846,1.89,1.89l0,0C392.124,163.992,391.277,164.838,390.234,164.838z"/>
			<path fill="#0093C1" d="M443.439,156.237h-58.378c-1.044,0-1.89-0.846-1.89-1.89l0,0c0-1.044,0.846-1.89,1.89-1.89h58.378
				c1.044,0,1.89,0.846,1.89,1.89l0,0C445.329,155.391,444.483,156.237,443.439,156.237z"/>
			<path fill="#FFFFFF" d="M443.439,164.838h-45.378c-1.044,0-1.89-0.846-1.89-1.89l0,0c0-1.044,0.846-1.89,1.89-1.89h45.378
				c1.044,0,1.89,0.846,1.89,1.89l0,0C445.329,163.992,444.483,164.838,443.439,164.838z"/>
			<path fill="#FF6C6C" d="M413.366,171.428h-69.516c-0.488,0-0.884-0.396-0.884-0.884l0,0c0-0.489,0.396-0.884,0.884-0.884h69.516
				c0.489,0,0.885,0.396,0.885,0.884l0,0C414.251,171.032,413.855,171.428,413.366,171.428z"/>
		</g>
	</g>
	<g>
		<g>
			<rect x="265.852" y="286.307" fill="#597D90" width="325.261" height="10.081"/>
			<g>
				<rect x="497.93" y="296.388" fill="#597D90" width="7.717" height="192.61"/>
				<polygon fill="#597D90" points="598.83,488.998 591.112,488.998 566.037,296.388 573.755,296.388 				"/>
			</g>
			<g>
				<polygon fill="#253D49" points="505.646,311.832 505.646,296.388 497.93,296.388 497.93,310.805 				"/>
				<polygon fill="#253D49" points="573.755,296.388 566.037,296.388 569.149,320.291 577.003,321.338 				"/>
			</g>
			<g>
				<rect x="279.143" y="296.388" fill="#597D90" width="7.717" height="192.61"/>
				<polygon fill="#597D90" points="380.043,488.998 372.326,488.998 347.251,296.388 354.969,296.388 				"/>
			</g>
			<g>
				<polygon fill="#253D49" points="286.86,311.832 286.86,296.388 279.143,296.388 279.143,310.805 				"/>
				<polygon fill="#253D49" points="354.969,296.388 347.251,296.388 350.363,320.291 358.217,321.338 				"/>
			</g>
		</g>
		<g>
			
				<line fill="none" stroke="#597D90" stroke-width="1.0612" stroke-miterlimit="10" x1="270.627" y1="488.998" x2="295.565" y2="488.998"/>
			
				<line fill="none" stroke="#597D90" stroke-width="1.0612" stroke-miterlimit="10" x1="363.647" y1="488.998" x2="388.586" y2="488.998"/>
		</g>
		<g>
			
				<line fill="none" stroke="#597D90" stroke-width="1.0612" stroke-miterlimit="10" x1="488.669" y1="488.998" x2="513.607" y2="488.998"/>
			
				<line fill="none" stroke="#597D90" stroke-width="1.0612" stroke-miterlimit="10" x1="581.688" y1="488.998" x2="606.627" y2="488.998"/>
		</g>
	</g>
	<g>
		<g>
			<path fill="#989C3F" d="M178.179,396.176c0,0-0.866-21.611-13.459-33.109c-12.594-11.496-27.274-14.502-33.641-4.598
				s3.184,19.633,12.558,28.477C153.01,395.787,174.872,396.031,178.179,396.176z"/>
			<path fill="#3A796B" d="M179.393,358.561c0,0-23.199-14.771-31.866-33.166s4.068-32.013,11.319-34.047
				c7.252-2.034,22.816,0.204,27.592,20.485C191.213,332.115,179.393,358.561,179.393,358.561z"/>
			<path fill="#989C3F" d="M215.055,335.271c0,0-6.629-13-9.547-30.775c-2.918-17.775,6.897-42.978,30.244-39.794
				s16.62,32.165,5.571,45.101C233.693,318.736,215.055,335.271,215.055,335.271z"/>
			<path fill="none" stroke="#253D49" stroke-width="1.0612" stroke-miterlimit="10" d="M232.916,266.976
				c0,0-27.909,91.264-32.897,158.473"/>
			<path fill="#509C8A" d="M191.242,379.496c0,0-2.173-14.338,4.372-29.725c6.544-15.389,19.278-16.803,25.469-13.797
				c6.19,3.008,4.953,17.156-1.769,27.238C212.593,373.295,200.226,377.469,191.242,379.496z"/>
			<path fill="none" stroke="#253D49" stroke-width="1.0612" stroke-miterlimit="10" d="M190.896,424.264
				c0,0-9.197-73.223-26.176-117.086"/>
			<path fill="none" stroke="#253D49" stroke-width="1.0612" stroke-miterlimit="10" d="M145.618,370.143
				c0,0,17.669,18.885,41.909,31.305"/>
			<path fill="none" stroke="#253D49" stroke-width="1.0612" stroke-miterlimit="10" d="M213.889,346.088
				c0,0-16.003,28.477-29.049,39.707"/>
			<path fill="#FF6C6C" d="M214.78,393.289c0,0,10.66-54.215,34.334-36.836C269.543,371.451,235.895,396.555,214.78,393.289z"/>
			<path fill="none" stroke="#253D49" stroke-width="1.0612" stroke-miterlimit="10" d="M241.509,365.26
				c0,0-14.68,24.496-39.056,34.877"/>
			<path fill="#253D49" d="M200.764,413.867h-26.973c0.281,22.867,4.19,45.736,5.956,54.961c0.473,2.469,2.636,4.252,5.15,4.252
				h15.867h15.867c2.515,0,4.678-1.783,5.15-4.252c1.765-9.225,5.674-32.094,5.955-54.961H200.764z"/>
			<path fill="#1C2E39" d="M173.792,413.867c0.08,6.457,0.448,12.912,0.976,19.061c8.593-0.82,17.157-2.176,21.044-4.42
				c6.259-3.609,22.194-6.482,31.743-7.949c0.091-2.223,0.154-4.457,0.182-6.691h-26.972H173.792z"/>
		</g>
		
			<line fill="none" stroke="#253D49" stroke-width="1.0612" stroke-miterlimit="10" x1="176.002" y1="473.08" x2="241.509" y2="473.08"/>
	</g>
</g>
</svg>
